<svg id="svg" version="1.1" width="400" height="428.15533980582524" viewBox="0 0 400 428.15533980582524" xmlns="http://www.w3.org/2000/svg" xmlns:xlink="http://www.w3.org/1999/xlink" ><g id="svgg"><path id="path0" d="M283.000 0.269 C 278.311 0.453,267.040 1.619,266.804 1.945 C 266.692 2.099,264.360 2.632,261.622 3.128 C 258.884 3.625,256.442 4.199,256.194 4.405 C 255.947 4.610,254.497 5.067,252.972 5.419 C 251.448 5.772,249.660 6.305,249.000 6.603 C 248.340 6.902,246.900 7.433,245.800 7.784 C 244.700 8.136,243.260 8.668,242.600 8.967 C 239.733 10.267,238.334 10.800,237.786 10.800 C 237.464 10.800,237.200 10.980,237.200 11.200 C 237.200 11.420,237.023 11.600,236.808 11.600 C 236.592 11.600,234.878 12.320,233.000 13.200 C 231.122 14.080,229.465 14.800,229.318 14.800 C 229.172 14.800,228.680 15.133,228.226 15.539 C 227.772 15.946,226.591 16.592,225.601 16.975 C 224.612 17.359,223.712 17.813,223.601 17.984 C 223.491 18.155,222.500 18.774,221.400 19.359 C 217.750 21.300,216.044 22.307,214.962 23.158 C 214.374 23.621,213.655 24.000,213.366 24.000 C 213.077 24.000,212.696 24.246,212.520 24.546 C 212.344 24.846,211.606 25.395,210.879 25.767 C 210.153 26.138,209.463 26.692,209.346 26.997 C 209.229 27.302,207.033 29.068,204.466 30.921 C 195.858 37.137,186.393 45.007,178.171 52.786 C 173.749 56.970,170.462 62.800,172.525 62.800 C 172.828 62.800,173.363 63.115,173.713 63.500 C 174.063 63.885,175.032 64.560,175.865 65.000 C 176.699 65.440,177.655 66.036,177.990 66.324 C 179.245 67.403,183.419 69.998,183.900 69.999 C 184.175 70.000,184.400 70.176,184.400 70.392 C 184.400 70.607,185.120 71.151,186.000 71.600 C 186.880 72.049,187.600 72.572,187.600 72.761 C 187.600 72.951,187.915 73.207,188.300 73.329 C 189.301 73.646,191.294 74.890,191.999 75.637 C 192.330 75.988,192.795 76.208,193.032 76.127 C 193.831 75.853,199.381 79.897,201.400 82.225 C 202.500 83.493,203.805 84.926,204.300 85.411 C 204.795 85.895,205.201 86.451,205.203 86.646 C 205.207 87.162,208.588 90.400,209.122 90.400 C 209.372 90.400,209.975 89.860,210.463 89.200 C 210.951 88.540,211.542 87.996,211.775 87.991 C 212.009 87.986,213.563 86.771,215.229 85.291 C 216.894 83.811,219.213 81.790,220.381 80.800 C 221.549 79.810,222.976 78.595,223.552 78.099 C 224.128 77.604,225.680 76.398,227.000 75.421 C 228.320 74.444,229.730 73.349,230.133 72.989 C 230.536 72.629,231.481 71.971,232.233 71.528 C 232.985 71.084,233.602 70.604,233.605 70.460 C 233.607 70.317,234.327 69.856,235.205 69.436 C 236.082 69.015,236.800 68.549,236.800 68.399 C 236.800 68.249,237.610 67.709,238.600 67.200 C 239.590 66.691,240.400 66.153,240.400 66.005 C 240.400 65.858,241.300 65.315,242.400 64.800 C 243.500 64.285,244.400 63.738,244.400 63.586 C 244.400 63.433,245.210 62.999,246.200 62.621 C 247.190 62.243,248.000 61.790,248.000 61.613 C 248.000 61.437,249.035 60.875,250.300 60.365 C 251.565 59.855,252.838 59.204,253.129 58.919 C 253.419 58.633,253.922 58.400,254.245 58.400 C 254.569 58.400,255.951 57.883,257.317 57.252 C 258.683 56.621,260.520 55.875,261.400 55.594 C 262.280 55.314,263.090 54.959,263.200 54.805 C 263.310 54.652,265.020 54.129,267.000 53.643 C 268.980 53.158,270.960 52.594,271.400 52.391 C 272.681 51.800,279.066 50.801,283.300 50.529 C 285.445 50.392,287.200 50.126,287.200 49.940 C 287.200 49.457,294.701 49.515,295.000 50.000 C 295.136 50.220,296.204 50.400,297.373 50.400 C 299.879 50.400,309.310 51.939,309.600 52.395 C 309.710 52.569,311.285 53.110,313.100 53.599 C 314.915 54.088,316.400 54.623,316.400 54.789 C 316.400 54.955,317.255 55.414,318.300 55.808 C 319.345 56.202,320.629 56.857,321.154 57.262 C 321.679 57.668,322.286 58.000,322.504 58.000 C 323.169 58.000,328.074 61.311,331.096 63.800 C 332.861 65.254,339.449 71.883,340.699 73.463 C 341.194 74.089,342.139 75.254,342.799 76.053 C 343.460 76.852,344.000 77.621,344.000 77.762 C 344.000 77.904,344.630 78.935,345.400 80.055 C 346.170 81.174,346.800 82.327,346.800 82.616 C 346.800 82.906,347.052 83.395,347.360 83.703 C 347.668 84.011,348.340 85.509,348.854 87.032 C 349.367 88.554,349.903 89.890,350.046 90.000 C 350.365 90.246,351.600 96.135,351.600 97.409 C 351.600 97.918,351.801 98.400,352.046 98.482 C 352.676 98.692,352.685 112.105,352.054 112.315 C 351.804 112.399,351.600 112.882,351.600 113.391 C 351.600 114.754,350.353 120.568,350.011 120.800 C 349.849 120.910,349.315 122.305,348.825 123.900 C 348.335 125.495,347.768 126.800,347.567 126.800 C 347.365 126.800,347.200 126.975,347.200 127.189 C 347.200 127.753,345.382 131.563,344.316 133.234 C 342.214 136.527,341.027 138.268,340.109 139.400 C 339.574 140.060,338.746 141.108,338.268 141.728 C 336.310 144.273,327.027 153.176,323.804 155.600 C 321.903 157.030,320.009 158.505,319.595 158.879 C 319.181 159.252,318.302 159.837,317.641 160.179 C 316.980 160.520,316.296 161.027,316.120 161.304 C 315.944 161.581,315.125 162.162,314.300 162.595 C 313.475 163.028,312.800 163.493,312.800 163.628 C 312.800 163.763,311.990 164.291,311.000 164.800 C 310.010 165.309,309.200 165.847,309.200 165.995 C 309.200 166.142,308.300 166.685,307.200 167.200 C 306.100 167.715,305.200 168.270,305.200 168.433 C 305.200 168.595,304.345 169.140,303.300 169.644 C 302.255 170.147,301.190 170.765,300.934 171.017 C 300.678 171.269,299.913 171.705,299.234 171.986 C 298.555 172.267,298.000 172.633,298.000 172.799 C 298.000 172.965,297.100 173.489,296.000 173.962 C 294.900 174.435,293.999 174.952,293.999 175.111 C 293.998 175.270,293.179 175.736,292.180 176.147 C 291.180 176.558,290.139 177.118,289.866 177.391 C 289.593 177.664,288.566 178.274,287.585 178.747 C 286.603 179.220,283.820 180.691,281.400 182.017 C 278.980 183.343,276.190 184.807,275.200 185.271 C 274.210 185.734,273.310 186.228,273.200 186.368 C 273.090 186.508,272.190 186.965,271.200 187.383 C 270.210 187.802,269.220 188.341,269.000 188.580 C 268.780 188.819,267.790 189.361,266.800 189.783 C 265.810 190.205,264.716 190.786,264.369 191.075 C 264.021 191.364,263.608 191.600,263.449 191.600 C 263.291 191.600,262.214 192.206,261.056 192.947 C 259.898 193.688,258.287 194.534,257.475 194.827 C 256.664 195.121,256.000 195.511,256.000 195.695 C 256.000 195.878,255.190 196.376,254.200 196.800 C 253.210 197.224,252.400 197.722,252.400 197.905 C 252.400 198.089,251.725 198.477,250.900 198.767 C 250.075 199.058,249.040 199.610,248.600 199.994 C 248.160 200.379,246.945 201.012,245.900 201.401 C 244.855 201.790,244.000 202.247,244.000 202.416 C 244.000 202.585,243.010 203.134,241.800 203.635 C 240.590 204.137,239.600 204.665,239.600 204.809 C 239.600 204.952,238.610 205.488,237.400 206.000 C 236.190 206.512,235.200 207.067,235.200 207.234 C 235.200 207.401,234.571 207.745,233.803 207.999 C 233.035 208.253,232.270 208.684,232.103 208.958 C 231.936 209.233,230.990 209.774,230.000 210.162 C 229.010 210.550,227.930 211.109,227.600 211.405 C 227.270 211.701,226.190 212.323,225.200 212.788 C 222.765 213.932,219.889 215.471,219.400 215.892 C 219.180 216.082,218.100 216.666,217.000 217.191 C 215.900 217.716,214.910 218.267,214.800 218.416 C 214.690 218.565,213.706 219.079,212.614 219.559 C 211.522 220.039,210.532 220.579,210.414 220.759 C 210.296 220.939,209.390 221.461,208.400 221.919 C 206.178 222.948,204.340 224.048,203.805 224.672 C 203.218 225.356,187.700 233.781,177.000 239.226 C 171.178 242.188,167.846 244.100,167.927 244.433 C 167.996 244.723,171.551 251.946,175.827 260.484 C 180.582 269.981,183.600 276.459,183.600 277.170 C 183.600 277.810,183.735 278.393,183.900 278.467 C 184.065 278.540,185.529 281.255,187.152 284.500 C 188.776 287.745,190.238 290.400,190.401 290.400 C 190.565 290.400,196.950 302.907,204.592 318.192 C 216.354 341.720,218.948 346.615,221.501 350.092 C 223.160 352.352,225.558 355.640,226.830 357.400 C 230.997 363.164,230.855 363.019,231.385 362.028 C 231.636 361.559,231.967 361.301,232.121 361.454 C 232.274 361.608,232.400 361.365,232.400 360.916 C 232.400 359.878,233.486 357.257,234.219 356.524 C 234.527 356.216,234.978 355.207,235.222 354.282 C 235.466 353.357,235.887 352.240,236.158 351.800 C 236.430 351.360,237.070 349.560,237.582 347.800 C 238.094 346.040,238.636 344.510,238.786 344.400 C 238.937 344.290,239.382 342.670,239.777 340.800 C 240.171 338.930,240.629 337.220,240.795 337.000 C 241.417 336.173,241.661 333.600,241.118 333.594 C 240.713 333.589,240.719 333.512,241.144 333.243 C 241.495 333.020,241.909 331.076,242.314 327.749 C 242.658 324.917,243.088 322.499,243.269 322.377 C 244.163 321.772,244.105 294.841,243.211 295.393 C 243.041 295.498,242.687 293.563,242.425 291.092 C 242.163 288.621,241.745 285.430,241.496 284.000 C 241.247 282.570,241.078 281.265,241.122 281.100 C 241.165 280.935,241.028 280.800,240.818 280.800 C 240.608 280.800,240.323 280.125,240.184 279.300 C 239.830 277.191,239.241 275.262,238.383 273.400 C 237.977 272.520,237.434 270.945,237.175 269.900 C 236.917 268.855,236.546 268.000,236.353 268.000 C 234.949 268.000,236.208 266.111,238.204 265.224 C 239.412 264.687,240.400 264.102,240.400 263.924 C 240.400 263.746,240.577 263.600,240.794 263.600 C 241.011 263.600,242.136 263.016,243.294 262.302 C 246.067 260.593,247.447 259.814,249.482 258.809 C 250.408 258.352,251.398 257.749,251.682 257.468 C 251.967 257.188,253.010 256.547,254.000 256.044 C 254.990 255.542,256.790 254.524,258.000 253.783 C 259.210 253.042,261.010 252.029,262.000 251.532 C 262.990 251.035,263.980 250.474,264.200 250.284 C 264.880 249.699,267.711 248.056,269.600 247.150 C 270.590 246.676,271.459 246.135,271.532 245.948 C 271.604 245.762,272.414 245.248,273.332 244.807 C 274.249 244.365,276.511 243.103,278.359 242.002 C 280.206 240.901,281.849 240.000,282.010 240.000 C 282.171 240.000,282.532 239.723,282.813 239.385 C 283.094 239.046,284.196 238.394,285.262 237.935 C 286.328 237.477,287.200 236.961,287.200 236.790 C 287.200 236.618,287.738 236.291,288.395 236.062 C 289.053 235.832,290.390 235.095,291.367 234.422 C 292.345 233.750,293.324 233.200,293.543 233.200 C 293.763 233.200,294.181 232.966,294.471 232.679 C 294.762 232.393,295.855 231.747,296.900 231.244 C 297.945 230.740,298.800 230.203,298.800 230.049 C 298.800 229.895,299.790 229.333,301.000 228.800 C 302.210 228.267,303.200 227.701,303.200 227.543 C 303.200 227.384,303.605 227.128,304.100 226.974 C 304.595 226.820,305.919 226.088,307.041 225.347 C 308.164 224.606,309.276 224.000,309.513 224.000 C 309.749 224.000,310.192 223.751,310.497 223.446 C 310.801 223.142,311.849 222.488,312.825 221.993 C 313.801 221.498,314.690 220.960,314.800 220.797 C 314.910 220.635,315.810 220.109,316.800 219.628 C 318.969 218.574,321.611 217.029,322.309 216.406 C 322.589 216.156,323.426 215.698,324.169 215.387 C 324.912 215.077,325.763 214.592,326.060 214.311 C 326.357 214.030,327.500 213.360,328.600 212.822 C 329.700 212.284,330.780 211.693,331.000 211.509 C 331.750 210.880,336.096 208.400,336.448 208.400 C 336.642 208.400,337.119 208.085,337.509 207.700 C 337.898 207.315,339.158 206.564,340.309 206.032 C 341.459 205.499,342.402 204.959,342.405 204.832 C 342.407 204.704,343.172 204.243,344.105 203.806 C 345.037 203.369,345.890 202.893,346.000 202.747 C 346.185 202.502,348.178 201.360,351.600 199.539 C 352.370 199.129,353.180 198.568,353.400 198.291 C 353.620 198.015,354.309 197.463,354.931 197.065 C 355.553 196.667,356.453 196.009,356.931 195.602 C 357.409 195.196,359.248 193.634,361.017 192.132 C 367.588 186.552,378.800 175.120,378.800 174.000 C 378.800 173.859,379.340 173.139,380.000 172.400 C 380.660 171.661,381.200 170.878,381.200 170.662 C 381.200 170.445,381.472 169.982,381.805 169.634 C 383.080 168.299,385.304 164.709,387.308 160.749 C 387.823 159.731,388.513 158.630,388.841 158.302 C 389.169 157.974,389.691 156.917,390.002 155.953 C 390.312 154.989,390.711 154.098,390.888 153.974 C 391.064 153.849,391.583 152.679,392.041 151.374 C 392.499 150.068,393.018 148.820,393.195 148.600 C 393.372 148.380,393.907 146.850,394.384 145.200 C 394.861 143.550,395.495 141.660,395.793 141.000 C 396.091 140.340,396.568 138.630,396.854 137.200 C 397.140 135.770,397.503 134.506,397.662 134.391 C 397.821 134.277,398.345 131.577,398.826 128.391 C 400.774 115.497,400.031 86.197,397.623 81.000 C 397.419 80.560,396.932 78.715,396.541 76.900 C 396.149 75.085,395.687 73.600,395.514 73.600 C 395.341 73.600,395.200 73.380,395.200 73.111 C 395.200 72.453,393.507 67.052,393.222 66.800 C 393.098 66.690,392.753 65.880,392.456 65.000 C 391.842 63.182,389.212 57.503,388.843 57.200 C 388.709 57.090,388.164 56.100,387.632 55.000 C 387.100 53.900,386.560 52.910,386.432 52.800 C 386.304 52.690,385.764 51.790,385.231 50.800 C 384.698 49.810,384.023 48.856,383.731 48.680 C 383.439 48.504,383.200 48.118,383.200 47.822 C 383.200 47.526,382.753 46.860,382.207 46.342 C 381.661 45.824,381.211 45.246,381.207 45.057 C 381.198 44.613,378.361 40.895,377.030 39.585 C 376.464 39.027,376.000 38.424,376.000 38.246 C 376.000 38.068,373.255 35.242,369.900 31.966 C 361.844 24.101,361.736 24.000,361.418 24.000 C 361.267 24.000,360.290 23.280,359.246 22.400 C 358.202 21.520,357.135 20.800,356.874 20.800 C 356.613 20.800,356.400 20.635,356.400 20.433 C 356.400 20.231,355.725 19.655,354.900 19.154 C 354.075 18.652,353.310 18.129,353.200 17.991 C 353.090 17.853,352.190 17.304,351.200 16.770 C 350.210 16.237,349.306 15.676,349.191 15.524 C 348.778 14.977,337.016 9.200,336.316 9.200 C 335.922 9.200,335.600 9.037,335.600 8.837 C 335.600 8.638,334.565 8.154,333.300 7.762 C 332.035 7.370,330.910 6.930,330.800 6.783 C 330.690 6.636,328.980 6.100,327.000 5.592 C 325.020 5.083,323.210 4.524,322.978 4.349 C 322.746 4.174,320.316 3.625,317.578 3.128 C 314.840 2.632,312.508 2.099,312.396 1.944 C 311.815 1.144,290.974 -0.044,283.000 0.269 " stroke="none" fill="#84dc9c" fill-rule="evenodd"></path><path id="path1" d="M121.600 0.413 C 114.670 0.715,107.952 1.412,106.600 1.970 C 106.160 2.152,103.556 2.690,100.813 3.167 C 98.070 3.644,95.730 4.176,95.613 4.348 C 95.496 4.520,94.050 4.977,92.400 5.364 C 90.750 5.750,88.770 6.381,88.000 6.766 C 87.230 7.151,85.745 7.716,84.700 8.021 C 83.655 8.325,82.800 8.699,82.800 8.850 C 82.800 9.002,81.793 9.442,80.562 9.830 C 79.331 10.217,78.116 10.738,77.862 10.988 C 77.608 11.238,76.590 11.763,75.600 12.155 C 74.610 12.546,73.530 13.086,73.200 13.353 C 72.870 13.621,71.880 14.191,71.000 14.620 C 70.120 15.049,69.256 15.625,69.080 15.900 C 68.904 16.175,68.513 16.400,68.211 16.400 C 67.909 16.400,67.153 16.816,66.531 17.324 C 65.909 17.831,64.680 18.660,63.800 19.165 C 62.920 19.670,62.056 20.334,61.880 20.641 C 61.704 20.949,61.370 21.200,61.137 21.200 C 60.749 21.200,55.756 25.157,53.081 27.585 C 50.367 30.047,44.399 36.037,44.392 36.305 C 44.388 36.467,43.531 37.502,42.487 38.605 C 41.444 39.707,40.148 41.237,39.608 42.005 C 39.068 42.772,38.391 43.642,38.104 43.938 C 37.816 44.234,37.311 44.999,36.980 45.638 C 36.650 46.277,36.204 46.800,35.990 46.800 C 35.775 46.800,35.600 46.994,35.600 47.231 C 35.600 47.468,34.880 48.667,34.000 49.896 C 33.120 51.125,32.400 52.358,32.400 52.637 C 32.400 52.915,32.132 53.411,31.804 53.739 C 31.017 54.526,26.216 64.580,25.550 66.835 C 25.263 67.806,24.832 68.804,24.591 69.052 C 24.350 69.301,23.817 70.975,23.406 72.772 C 22.996 74.569,22.531 76.119,22.373 76.217 C 22.215 76.314,21.760 78.150,21.363 80.297 C 20.965 82.444,20.521 84.290,20.376 84.400 C 20.002 84.683,19.290 90.041,18.755 96.600 C 17.964 106.297,19.072 130.278,20.355 131.200 C 20.507 131.310,20.954 133.108,21.347 135.196 C 21.740 137.284,22.209 139.174,22.389 139.396 C 22.569 139.618,23.124 141.330,23.622 143.200 C 24.119 145.070,24.641 146.690,24.780 146.800 C 24.920 146.910,25.286 147.810,25.594 148.800 C 25.903 149.790,26.674 151.680,27.309 153.000 C 29.081 156.688,31.309 160.977,31.568 161.200 C 31.696 161.310,32.236 162.300,32.768 163.400 C 33.300 164.500,33.850 165.490,33.989 165.600 C 34.128 165.710,34.677 166.520,35.208 167.400 C 35.740 168.280,36.495 169.349,36.887 169.775 C 37.279 170.202,37.600 170.781,37.600 171.061 C 37.600 171.342,37.960 171.765,38.400 172.000 C 38.840 172.235,39.200 172.649,39.200 172.918 C 39.200 173.188,39.605 173.860,40.100 174.411 C 40.595 174.963,42.016 176.581,43.257 178.007 C 47.036 182.349,58.271 193.200,58.987 193.200 C 59.151 193.200,59.639 193.650,60.071 194.200 C 60.504 194.750,61.017 195.200,61.211 195.200 C 61.405 195.200,62.006 195.605,62.547 196.100 C 63.087 196.595,63.950 197.312,64.465 197.693 C 64.979 198.075,65.878 198.750,66.463 199.193 C 67.048 199.637,67.704 200.000,67.920 200.000 C 68.137 200.000,68.414 200.261,68.537 200.579 C 68.659 200.898,69.353 201.463,70.079 201.835 C 70.806 202.207,71.490 202.628,71.600 202.769 C 72.040 203.336,77.172 206.800,77.572 206.800 C 77.807 206.800,78.000 206.976,78.000 207.192 C 78.000 207.407,78.765 207.973,79.700 208.450 C 80.635 208.926,81.957 209.739,82.638 210.258 C 83.319 210.776,84.084 211.200,84.338 211.200 C 84.592 211.200,84.800 211.379,84.800 211.598 C 84.800 211.817,85.655 212.395,86.700 212.884 C 87.745 213.372,88.949 214.093,89.375 214.486 C 89.802 214.879,90.387 215.200,90.675 215.200 C 90.964 215.200,91.516 215.515,91.903 215.900 C 92.290 216.285,93.370 216.942,94.303 217.361 C 95.236 217.779,96.000 218.232,96.000 218.366 C 96.000 218.501,96.945 219.052,98.100 219.592 C 99.255 220.131,100.290 220.683,100.400 220.819 C 100.510 220.954,101.500 221.500,102.600 222.032 C 103.700 222.564,104.690 223.114,104.800 223.255 C 104.910 223.395,105.714 223.807,106.586 224.171 C 107.458 224.534,108.268 224.963,108.386 225.125 C 108.504 225.287,111.790 227.035,115.689 229.009 C 124.130 233.285,125.215 233.853,126.000 234.408 C 126.556 234.800,128.272 235.724,132.800 238.068 C 133.790 238.581,134.838 239.225,135.129 239.500 C 135.419 239.775,135.822 240.000,136.023 240.000 C 136.224 240.000,137.336 240.584,138.494 241.298 C 140.695 242.654,141.593 243.174,144.466 244.754 C 145.420 245.278,146.290 245.838,146.400 245.998 C 146.510 246.158,147.230 246.610,148.000 247.003 C 148.770 247.397,149.957 248.142,150.638 248.659 C 151.319 249.177,152.056 249.600,152.276 249.600 C 152.496 249.600,152.979 249.935,153.350 250.345 C 153.720 250.754,154.738 251.411,155.612 251.805 C 156.485 252.199,157.200 252.670,157.200 252.850 C 157.200 253.031,157.785 253.478,158.500 253.844 C 159.215 254.209,159.944 254.754,160.120 255.054 C 160.296 255.354,160.610 255.600,160.819 255.600 C 161.185 255.600,165.993 259.003,166.400 259.550 C 166.510 259.697,167.117 260.148,167.749 260.551 C 170.573 262.350,179.501 271.228,181.511 274.235 C 181.792 274.656,182.376 275.540,182.809 276.200 C 185.237 279.907,182.757 274.324,175.827 260.484 C 171.551 251.946,167.996 244.724,167.927 244.437 C 167.847 244.107,171.503 242.021,177.800 238.803 C 191.688 231.704,203.783 225.003,203.887 224.349 C 203.935 224.047,202.622 222.720,200.969 221.400 C 199.316 220.080,197.512 218.595,196.961 218.100 C 196.410 217.605,195.822 217.200,195.655 217.200 C 195.488 217.200,194.980 216.855,194.528 216.433 C 194.075 216.011,192.514 214.851,191.059 213.855 C 189.604 212.859,188.017 211.674,187.532 211.222 C 187.046 210.770,186.447 210.400,186.200 210.400 C 185.953 210.400,185.402 210.076,184.975 209.680 C 184.549 209.284,183.582 208.609,182.826 208.180 C 182.071 207.751,181.171 207.166,180.826 206.879 C 179.647 205.899,175.300 203.200,174.899 203.200 C 174.678 203.200,174.262 202.916,173.974 202.569 C 173.686 202.222,172.629 201.497,171.625 200.959 C 170.621 200.421,168.506 199.191,166.925 198.225 C 165.344 197.260,163.679 196.352,163.225 196.208 C 162.771 196.064,162.400 195.800,162.400 195.622 C 162.400 195.444,161.455 194.894,160.300 194.399 C 159.145 193.904,158.101 193.345,157.980 193.156 C 157.859 192.967,156.869 192.342,155.780 191.767 C 149.589 188.499,146.142 186.801,145.700 186.800 C 145.425 186.800,145.200 186.637,145.200 186.438 C 145.200 186.239,143.265 185.105,140.900 183.918 C 135.230 181.072,129.548 178.014,128.800 177.405 C 128.470 177.137,127.660 176.646,127.000 176.314 C 126.340 175.982,124.313 174.875,122.495 173.855 C 120.677 172.835,118.787 171.775,118.295 171.500 C 117.803 171.225,117.310 170.897,117.200 170.770 C 117.090 170.644,116.191 170.104,115.202 169.570 C 114.213 169.037,113.055 168.285,112.627 167.900 C 112.199 167.515,111.647 167.200,111.400 167.200 C 111.153 167.200,110.576 166.850,110.117 166.423 C 109.658 165.996,108.673 165.319,107.928 164.920 C 107.183 164.521,106.310 163.968,105.987 163.691 C 105.664 163.415,104.680 162.710,103.800 162.126 C 100.100 159.668,98.888 158.788,98.409 158.211 C 98.130 157.875,97.724 157.600,97.507 157.600 C 97.290 157.600,96.727 157.251,96.256 156.823 C 95.785 156.396,93.960 154.869,92.200 153.429 C 89.169 150.949,84.457 146.481,82.511 144.242 C 78.623 139.768,73.600 132.664,73.600 131.638 C 73.600 131.429,73.374 131.019,73.099 130.729 C 72.823 130.438,72.150 129.210,71.603 128.000 C 71.056 126.790,70.506 125.710,70.380 125.600 C 70.064 125.324,68.400 119.918,68.400 119.169 C 68.400 118.834,68.235 118.389,68.032 118.180 C 66.112 116.195,66.076 94.540,67.989 92.208 C 68.174 91.984,68.634 90.720,69.012 89.400 C 69.778 86.731,72.327 81.074,72.859 80.867 C 73.046 80.793,73.200 80.566,73.200 80.360 C 73.200 79.830,76.914 74.400,77.278 74.400 C 77.444 74.400,77.845 73.905,78.169 73.300 C 79.126 71.512,86.298 64.516,89.226 62.513 C 89.762 62.146,90.290 61.736,90.400 61.602 C 90.510 61.468,91.320 60.923,92.200 60.392 C 93.080 59.860,93.980 59.276,94.200 59.094 C 94.854 58.552,98.061 56.833,100.100 55.933 C 101.145 55.471,102.000 54.937,102.000 54.747 C 102.000 54.556,102.245 54.400,102.544 54.400 C 102.844 54.400,105.005 53.765,107.348 52.990 C 111.778 51.523,117.885 50.406,121.500 50.402 C 122.719 50.401,123.600 50.221,123.600 49.973 C 123.600 48.957,144.499 51.088,147.400 52.400 C 147.840 52.599,149.730 53.159,151.600 53.644 C 153.470 54.130,155.090 54.638,155.200 54.774 C 155.310 54.910,156.480 55.354,157.800 55.760 C 159.120 56.165,160.290 56.621,160.400 56.771 C 160.510 56.922,161.770 57.461,163.200 57.969 C 164.630 58.477,166.070 59.109,166.400 59.372 C 166.730 59.635,167.810 60.194,168.800 60.614 C 169.790 61.034,170.725 61.558,170.878 61.777 C 171.214 62.259,171.019 62.502,173.397 58.631 C 174.524 56.796,176.533 54.336,178.171 52.786 C 186.405 44.996,195.858 37.137,204.500 30.897 C 209.932 26.975,209.903 27.042,206.931 25.200 C 205.688 24.430,203.615 23.125,202.322 22.300 C 201.030 21.475,199.799 20.800,199.587 20.800 C 199.374 20.800,199.200 20.651,199.200 20.468 C 199.200 20.286,198.255 19.702,197.100 19.170 C 195.945 18.638,194.820 18.009,194.600 17.774 C 194.380 17.538,193.390 17.002,192.400 16.583 C 191.410 16.165,190.510 15.720,190.400 15.595 C 190.015 15.158,183.389 12.033,182.300 11.774 C 181.695 11.631,181.200 11.386,181.200 11.231 C 181.200 11.075,179.985 10.523,178.500 10.004 C 177.015 9.486,175.710 8.952,175.600 8.820 C 175.490 8.687,174.320 8.255,173.000 7.861 C 171.680 7.466,170.060 6.899,169.400 6.601 C 168.740 6.302,166.940 5.746,165.400 5.363 C 163.860 4.981,162.510 4.540,162.400 4.383 C 162.290 4.226,159.860 3.677,157.000 3.163 C 154.140 2.650,151.710 2.118,151.600 1.981 C 151.096 1.357,132.909 -0.178,129.000 0.074 C 128.560 0.103,125.230 0.255,121.600 0.413 M194.489 77.500 C 195.465 78.325,196.610 79.311,197.032 79.692 C 200.204 82.550,201.918 84.000,202.122 84.000 C 202.254 84.000,203.000 84.658,203.781 85.461 C 204.561 86.265,205.200 86.781,205.200 86.607 C 205.200 86.434,204.795 85.895,204.300 85.411 C 203.805 84.926,202.500 83.493,201.400 82.225 C 199.591 80.139,194.075 76.000,193.105 76.000 C 192.889 76.000,193.512 76.675,194.489 77.500 M210.463 89.200 C 209.975 89.860,209.730 90.400,209.918 90.400 C 210.316 90.400,212.000 88.680,212.000 88.274 C 212.000 87.650,211.295 88.075,210.463 89.200 M190.000 290.640 C 190.000 290.771,190.257 291.446,190.572 292.140 C 191.366 293.888,192.353 299.050,192.662 303.064 C 192.804 304.913,193.073 306.522,193.260 306.637 C 193.740 306.934,193.685 313.500,193.200 313.800 C 192.980 313.936,192.799 314.892,192.798 315.924 C 192.793 322.730,186.569 341.332,183.964 342.329 C 183.779 342.400,183.229 343.255,182.743 344.229 C 182.256 345.203,181.734 346.000,181.582 346.000 C 181.430 346.000,180.858 346.675,180.309 347.500 C 179.761 348.325,178.567 349.765,177.656 350.700 C 176.745 351.636,176.000 352.505,176.000 352.632 C 176.000 352.924,172.538 356.400,172.247 356.400 C 172.128 356.400,171.197 357.210,170.179 358.200 C 169.160 359.190,168.251 360.000,168.158 360.000 C 168.065 360.000,167.002 360.804,165.796 361.786 C 163.011 364.054,159.064 366.688,157.000 367.655 C 156.120 368.068,154.230 369.035,152.800 369.805 C 151.370 370.575,148.940 371.606,147.400 372.096 C 145.860 372.587,144.510 373.101,144.400 373.240 C 144.290 373.379,142.850 373.810,141.200 374.198 C 139.550 374.586,137.480 375.147,136.600 375.446 C 130.522 377.511,102.311 377.628,100.800 375.595 C 100.690 375.447,99.970 375.208,99.200 375.065 C 95.236 374.326,91.600 373.393,91.600 373.114 C 91.600 372.941,91.360 372.800,91.067 372.800 C 90.281 372.800,85.033 371.123,84.800 370.797 C 84.690 370.644,83.655 370.207,82.500 369.827 C 81.345 369.447,80.400 368.970,80.400 368.768 C 80.400 368.566,80.175 368.400,79.900 368.400 C 79.226 368.399,72.187 364.828,70.204 363.480 C 69.329 362.886,68.476 362.400,68.307 362.400 C 68.138 362.400,67.685 362.120,67.300 361.779 C 66.915 361.437,65.340 360.323,63.800 359.302 C 62.260 358.282,60.761 357.210,60.469 356.921 C 60.177 356.631,59.578 356.202,59.139 355.967 C 58.699 355.732,58.038 355.273,57.670 354.948 C 57.301 354.623,55.921 353.512,54.601 352.479 C 51.913 350.374,52.248 350.655,48.577 347.400 C 45.251 344.449,37.600 336.943,37.600 336.629 C 37.600 336.504,36.626 335.403,35.435 334.183 L 33.270 331.966 32.147 333.083 C 31.529 333.697,29.786 335.640,28.274 337.400 C 23.367 343.110,21.022 345.733,19.900 346.765 C 19.295 347.322,18.800 347.922,18.800 348.098 C 18.800 348.273,17.945 349.320,16.900 350.423 C 14.837 352.601,12.487 355.218,11.172 356.800 C 10.714 357.350,9.319 358.950,8.070 360.357 C 6.822 361.763,5.561 363.253,5.269 363.669 C 4.977 364.084,3.982 365.184,3.058 366.112 C -0.238 369.423,-0.444 370.374,1.648 372.600 C 2.061 373.040,3.345 374.563,4.500 375.985 C 5.655 377.406,7.455 379.378,8.500 380.367 C 9.545 381.356,10.400 382.320,10.400 382.509 C 10.400 382.697,10.985 383.331,11.700 383.918 C 12.415 384.504,14.260 386.186,15.800 387.655 C 19.762 391.434,21.833 393.200,22.302 393.200 C 22.526 393.200,23.003 393.650,23.363 394.200 C 23.724 394.750,24.274 395.200,24.587 395.200 C 24.899 395.200,25.390 395.523,25.677 395.918 C 25.965 396.313,26.875 397.048,27.700 397.551 C 28.525 398.054,29.200 398.603,29.200 398.772 C 29.200 398.941,29.920 399.403,30.800 399.800 C 31.680 400.197,32.400 400.677,32.400 400.867 C 32.400 401.057,33.030 401.513,33.800 401.881 C 34.570 402.248,35.200 402.682,35.200 402.846 C 35.200 403.010,36.055 403.562,37.100 404.072 C 38.145 404.582,39.180 405.205,39.400 405.456 C 39.620 405.706,40.520 406.237,41.400 406.635 C 42.280 407.033,43.090 407.475,43.200 407.618 C 43.441 407.931,46.078 409.313,51.200 411.809 C 53.290 412.827,55.810 414.067,56.800 414.563 C 57.790 415.059,59.410 415.712,60.400 416.015 C 61.390 416.318,62.290 416.682,62.400 416.824 C 62.510 416.966,63.590 417.402,64.800 417.794 C 66.010 418.185,67.180 418.643,67.400 418.810 C 67.620 418.977,69.240 419.513,71.000 420.000 C 72.760 420.487,74.383 421.034,74.607 421.215 C 74.830 421.395,76.720 421.931,78.807 422.405 C 80.893 422.880,82.960 423.437,83.400 423.644 C 84.122 423.984,86.837 424.531,96.018 426.185 C 107.513 428.257,140.089 427.906,147.326 425.633 C 148.027 425.413,150.220 424.922,152.200 424.543 C 154.180 424.164,155.890 423.747,156.000 423.617 C 156.110 423.488,157.730 422.994,159.600 422.520 C 164.850 421.191,169.217 419.520,176.230 416.157 C 177.786 415.411,179.271 414.800,179.530 414.800 C 179.788 414.800,180.000 414.642,180.000 414.449 C 180.000 414.255,180.585 413.857,181.300 413.564 C 182.665 413.004,185.204 411.543,188.668 409.324 C 189.805 408.596,190.930 408.000,191.168 408.000 C 191.406 408.000,191.600 407.825,191.600 407.610 C 191.600 407.396,192.095 406.964,192.700 406.651 C 193.305 406.337,194.282 405.657,194.872 405.140 C 195.461 404.623,196.738 403.616,197.708 402.902 C 198.678 402.189,199.906 401.237,200.436 400.788 C 200.966 400.339,202.088 399.393,202.928 398.686 C 205.348 396.650,214.400 387.650,214.400 387.281 C 214.400 387.097,214.985 386.382,215.700 385.691 C 217.135 384.305,217.357 384.044,220.100 380.513 C 221.145 379.168,222.000 377.879,222.000 377.648 C 222.000 377.417,222.360 377.035,222.800 376.800 C 223.240 376.565,223.600 376.153,223.600 375.886 C 223.601 375.619,224.020 374.913,224.532 374.318 C 225.044 373.723,225.791 372.508,226.192 371.618 C 226.593 370.728,227.069 370.000,227.250 370.000 C 227.430 370.000,227.965 369.100,228.438 368.000 C 228.911 366.900,229.429 366.000,229.589 366.000 C 229.748 366.000,230.208 365.235,230.611 364.300 C 231.660 361.863,231.702 361.742,231.287 362.332 C 230.867 362.930,230.672 362.715,226.830 357.400 C 225.558 355.640,223.160 352.352,221.501 350.092 C 218.948 346.615,216.354 341.720,204.592 318.192 C 192.620 294.244,190.000 289.297,190.000 290.640 " stroke="none" fill="#84bcdc" fill-rule="evenodd"></path></g></svg>