<svg id="svg" xmlns="http://www.w3.org/2000/svg" xmlns:xlink="http://www.w3.org/1999/xlink" width="400" height="428.15533980582524" viewBox="0, 0, 400,428.15533980582524"><g id="svgg"><path id="path0" d="M270.795 0.529 C 269.143 0.788,267.660 1.050,267.500 1.111 C 266.647 1.436,259.349 2.905,258.500 2.923 C 258.225 2.929,258.000 3.091,258.000 3.284 C 258.000 3.477,257.775 3.598,257.500 3.553 C 257.225 3.508,256.529 3.667,255.953 3.906 C 255.377 4.144,253.858 4.534,252.576 4.771 C 251.295 5.007,250.104 5.426,249.929 5.701 C 249.755 5.975,249.609 6.060,249.606 5.890 C 249.603 5.719,249.060 5.859,248.400 6.200 C 247.740 6.541,247.200 6.704,247.200 6.561 C 247.200 6.419,246.975 6.479,246.700 6.696 C 246.165 7.117,243.997 7.774,243.500 7.666 C 243.335 7.630,243.200 7.757,243.200 7.950 C 243.200 8.142,242.643 8.411,241.962 8.548 C 241.282 8.684,239.591 9.336,238.205 9.998 C 236.819 10.659,235.559 11.200,235.405 11.200 C 235.250 11.200,234.601 11.572,233.962 12.027 C 233.323 12.482,232.800 12.760,232.800 12.644 C 232.800 12.470,229.519 14.096,222.877 17.562 C 222.284 17.871,221.690 18.291,221.555 18.496 C 221.421 18.701,221.151 18.879,220.955 18.892 C 220.760 18.905,219.929 19.340,219.108 19.858 C 218.287 20.376,217.494 20.800,217.346 20.800 C 217.197 20.800,216.486 21.250,215.764 21.800 C 215.043 22.350,214.357 22.800,214.239 22.800 C 213.499 22.800,209.200 26.228,209.200 26.818 C 209.200 27.258,207.655 28.621,205.100 30.434 C 191.772 39.890,176.660 53.329,173.378 58.643 C 172.306 60.379,171.248 61.925,171.026 62.078 C 170.804 62.231,170.708 62.417,170.812 62.491 C 172.978 64.033,175.987 66.000,176.180 66.000 C 176.320 66.000,176.824 66.364,177.301 66.808 C 177.778 67.253,178.851 67.917,179.684 68.285 C 180.518 68.653,181.200 69.089,181.200 69.254 C 181.200 69.419,182.100 70.059,183.200 70.677 C 184.299 71.295,185.199 71.935,185.200 72.100 C 185.200 72.265,185.359 72.400,185.554 72.400 C 186.009 72.400,190.956 75.672,191.134 76.090 C 191.208 76.263,191.433 76.303,191.634 76.179 C 191.835 76.055,192.000 76.142,192.000 76.374 C 192.000 76.605,192.405 76.725,192.900 76.641 C 194.636 76.343,203.256 82.938,202.574 84.042 C 202.471 84.209,202.570 84.458,202.793 84.596 C 203.017 84.734,203.200 85.027,203.200 85.247 C 203.200 85.467,202.992 85.519,202.738 85.362 C 202.450 85.184,202.385 85.252,202.566 85.545 C 202.725 85.802,203.002 85.922,203.182 85.811 C 203.362 85.700,203.732 85.877,204.004 86.204 C 204.276 86.532,204.401 86.800,204.282 86.800 C 204.163 86.800,204.996 87.746,206.133 88.903 C 208.058 90.862,210.400 91.818,210.400 90.644 C 210.400 90.210,212.665 88.000,213.110 88.000 C 213.284 88.000,214.624 86.875,216.087 85.500 C 217.550 84.125,219.519 82.370,220.463 81.600 C 221.406 80.830,222.498 79.885,222.889 79.500 C 223.280 79.115,223.720 78.800,223.866 78.800 C 224.013 78.800,224.418 78.526,224.766 78.190 C 226.759 76.272,228.496 74.800,228.767 74.800 C 228.938 74.800,229.448 74.485,229.901 74.100 C 230.355 73.715,231.127 73.130,231.618 72.800 C 232.109 72.470,233.007 71.795,233.613 71.300 C 234.220 70.805,234.915 70.400,235.158 70.400 C 235.401 70.400,235.600 70.220,235.600 70.000 C 235.600 69.780,235.842 69.600,236.138 69.600 C 236.434 69.600,237.002 69.240,237.400 68.800 C 237.798 68.360,238.264 68.000,238.435 68.000 C 238.797 68.000,242.789 65.597,243.442 64.986 C 243.686 64.758,244.761 64.128,245.832 63.586 C 246.903 63.044,248.007 62.390,248.286 62.133 C 248.564 61.876,249.334 61.546,249.996 61.401 C 250.658 61.255,251.200 60.971,251.200 60.768 C 251.200 60.566,251.335 60.440,251.500 60.489 C 251.665 60.538,252.273 60.262,252.850 59.876 C 253.428 59.489,254.255 59.105,254.688 59.022 C 255.121 58.938,256.836 58.224,258.499 57.435 C 260.162 56.646,261.864 56.000,262.282 56.000 C 262.699 56.000,263.211 55.852,263.420 55.671 C 264.029 55.143,270.199 53.381,270.900 53.534 C 271.065 53.570,271.200 53.450,271.200 53.267 C 271.200 53.083,271.425 52.920,271.700 52.905 C 271.975 52.889,273.730 52.603,275.600 52.269 C 287.596 50.127,294.089 50.055,304.400 51.951 C 309.887 52.960,315.987 55.104,320.000 57.433 C 320.550 57.753,321.945 58.474,323.100 59.036 C 324.255 59.598,325.200 60.225,325.200 60.429 C 325.200 60.633,325.470 60.800,325.800 60.800 C 326.130 60.800,326.777 61.177,327.238 61.638 C 327.698 62.098,328.643 62.868,329.338 63.349 C 332.207 65.334,341.805 74.800,340.949 74.800 C 340.800 74.800,341.065 75.136,341.539 75.547 C 342.012 75.958,342.400 76.470,342.400 76.685 C 342.400 76.900,342.756 77.398,343.191 77.791 C 343.625 78.185,343.885 78.663,343.767 78.853 C 343.649 79.044,343.715 79.200,343.913 79.200 C 344.112 79.200,344.617 79.875,345.037 80.700 C 345.457 81.525,345.950 82.310,346.134 82.445 C 346.318 82.579,346.452 82.849,346.432 83.045 C 346.399 83.362,347.109 84.962,348.642 88.023 C 351.950 94.629,352.611 109.608,349.976 118.228 C 349.769 118.904,349.594 119.714,349.587 120.028 C 349.581 120.343,349.132 121.500,348.591 122.600 C 348.050 123.700,347.604 124.780,347.599 125.000 C 347.572 126.359,340.369 138.800,339.609 138.800 C 339.451 138.800,339.160 139.142,338.961 139.560 C 338.128 141.312,332.162 147.667,328.221 151.000 C 327.181 151.880,326.030 152.926,325.665 153.325 C 325.299 153.724,323.931 154.784,322.625 155.680 C 320.093 157.416,320.133 157.385,318.000 159.198 C 317.230 159.852,316.369 160.390,316.087 160.394 C 315.806 160.397,315.472 160.669,315.346 160.998 C 315.219 161.326,314.982 161.513,314.819 161.412 C 314.655 161.310,314.172 161.536,313.746 161.914 C 312.455 163.056,310.456 164.400,310.050 164.400 C 309.839 164.400,309.607 164.541,309.533 164.713 C 309.328 165.195,304.371 168.400,303.830 168.400 C 303.566 168.400,302.964 168.760,302.492 169.200 C 302.020 169.640,301.446 170.000,301.217 170.000 C 300.988 170.000,300.800 170.146,300.800 170.325 C 300.800 170.504,300.170 170.898,299.400 171.200 C 298.630 171.502,298.000 171.876,298.000 172.031 C 298.000 172.186,297.579 172.419,297.065 172.548 C 296.551 172.677,295.649 173.161,295.061 173.623 C 294.473 174.086,292.959 175.025,291.696 175.711 C 290.433 176.396,288.500 177.459,287.400 178.073 C 286.300 178.688,283.780 180.021,281.800 181.037 C 279.820 182.052,277.840 183.096,277.400 183.355 C 275.248 184.626,272.969 185.753,272.700 185.681 C 272.535 185.636,272.400 185.780,272.400 186.000 C 272.400 186.220,272.110 186.400,271.754 186.400 C 270.928 186.400,268.000 188.036,268.000 188.497 C 268.000 188.690,267.845 188.752,267.656 188.635 C 267.376 188.461,264.456 189.989,261.200 192.013 C 260.870 192.218,259.790 192.772,258.800 193.244 C 257.810 193.716,256.910 194.214,256.800 194.351 C 256.506 194.717,255.268 195.449,252.900 196.658 C 251.745 197.247,250.800 197.891,250.800 198.089 C 250.800 198.286,250.620 198.336,250.400 198.200 C 250.180 198.064,250.000 198.154,250.000 198.400 C 250.000 198.646,249.832 198.744,249.628 198.617 C 249.423 198.491,249.145 198.565,249.011 198.783 C 248.876 199.000,248.099 199.489,247.283 199.868 C 246.467 200.248,245.668 200.748,245.506 200.979 C 245.344 201.211,245.209 201.243,245.206 201.051 C 245.203 200.859,244.908 200.944,244.551 201.240 C 244.195 201.536,243.050 202.233,242.008 202.789 C 240.966 203.345,239.323 204.242,238.356 204.782 C 237.390 205.322,236.510 205.781,236.400 205.801 C 236.290 205.821,235.570 206.234,234.800 206.718 C 234.030 207.201,233.188 207.598,232.929 207.599 C 232.669 207.599,232.208 207.849,231.903 208.154 C 231.297 208.760,227.894 210.575,227.645 210.425 C 227.559 210.374,227.379 210.494,227.245 210.692 C 226.940 211.141,220.295 214.757,219.942 214.666 C 219.800 214.630,219.350 214.893,218.942 215.252 C 218.175 215.925,215.614 217.354,215.120 217.383 C 214.966 217.392,214.615 217.625,214.340 217.900 C 214.065 218.175,213.698 218.400,213.524 218.400 C 213.351 218.400,211.366 219.420,209.115 220.667 C 206.863 221.913,204.808 222.933,204.548 222.933 C 204.289 222.933,204.153 223.133,204.247 223.378 C 204.700 224.559,193.355 231.100,175.407 240.007 C 171.288 242.051,168.000 243.922,168.000 244.221 C 168.000 244.517,171.347 251.483,175.438 259.700 C 180.642 270.154,182.908 275.114,182.984 276.220 C 183.096 277.855,185.348 283.176,186.147 283.694 C 186.396 283.856,186.478 283.991,186.329 283.994 C 185.738 284.007,189.196 290.125,190.035 290.548 C 190.674 290.871,194.877 298.873,204.769 318.600 L 218.609 346.200 224.468 354.200 C 231.282 363.504,231.907 364.165,232.254 362.432 C 232.383 361.785,232.824 360.896,233.233 360.457 C 233.762 359.889,233.836 359.602,233.488 359.461 C 233.127 359.315,233.136 359.255,233.524 359.232 C 233.812 359.214,233.935 359.019,233.798 358.797 C 233.661 358.576,233.830 358.287,234.172 358.155 C 234.515 358.024,234.696 357.755,234.574 357.558 C 234.452 357.361,234.554 357.200,234.800 357.200 C 235.046 357.200,235.136 357.020,235.000 356.800 C 234.864 356.580,234.954 356.400,235.200 356.400 C 235.446 356.400,235.536 356.220,235.400 356.000 C 235.264 355.780,235.343 355.600,235.576 355.600 C 235.809 355.600,236.000 355.272,236.000 354.871 C 236.000 353.696,237.239 350.400,237.680 350.400 C 237.903 350.400,237.982 350.130,237.855 349.800 C 237.729 349.470,237.779 349.200,237.967 349.200 C 238.155 349.200,238.401 348.705,238.514 348.100 C 238.627 347.495,238.815 346.640,238.933 346.200 C 239.306 344.805,240.835 339.449,241.225 338.172 C 241.431 337.496,241.600 336.551,241.600 336.072 C 241.600 335.592,241.776 335.200,241.990 335.200 C 242.210 335.200,242.275 334.677,242.140 334.000 C 242.001 333.307,242.069 332.800,242.300 332.800 C 242.520 332.800,242.701 332.395,242.702 331.900 C 242.704 330.489,243.619 323.467,243.887 322.800 C 244.497 321.284,244.880 300.000,244.297 300.000 C 244.045 300.000,243.987 299.305,244.142 298.168 C 244.281 297.160,244.231 296.031,244.032 295.660 C 243.833 295.288,243.572 293.908,243.451 292.592 C 243.330 291.276,242.951 288.615,242.610 286.679 C 242.268 284.742,241.941 282.852,241.883 282.479 C 241.824 282.105,241.672 281.620,241.544 281.400 C 241.254 280.903,240.891 279.399,240.567 277.359 C 240.431 276.502,240.135 275.685,239.909 275.545 C 239.683 275.404,239.628 275.078,239.788 274.820 C 239.948 274.561,239.783 274.023,239.422 273.625 C 239.062 273.226,238.803 272.743,238.848 272.550 C 238.893 272.358,238.720 271.693,238.465 271.074 C 238.209 270.455,237.997 269.555,237.994 269.074 C 237.989 268.345,237.916 268.300,237.559 268.800 C 237.215 269.282,237.169 269.223,237.328 268.500 C 237.436 268.005,237.392 267.600,237.229 267.600 C 237.066 267.600,236.933 267.338,236.933 267.018 C 236.933 266.697,237.083 266.528,237.267 266.641 C 237.450 266.755,237.600 266.657,237.600 266.424 C 237.600 266.191,237.848 266.000,238.151 266.000 C 238.454 266.000,238.924 265.732,239.196 265.404 C 239.468 265.077,239.850 264.907,240.045 265.028 C 240.240 265.149,240.400 265.076,240.400 264.867 C 240.400 264.658,241.075 264.196,241.900 263.841 C 243.480 263.162,243.792 262.979,246.929 260.900 C 248.007 260.185,249.140 259.600,249.445 259.600 C 249.750 259.600,250.000 259.409,250.000 259.176 C 250.000 258.943,250.160 258.851,250.355 258.972 C 250.550 259.093,250.921 258.936,251.179 258.625 C 251.438 258.313,253.123 257.309,254.925 256.393 C 256.726 255.477,258.560 254.404,259.000 254.010 C 259.440 253.615,260.939 252.734,262.332 252.051 C 263.724 251.368,265.372 250.447,265.994 250.005 C 266.615 249.562,267.321 249.200,267.562 249.200 C 267.803 249.200,268.000 249.049,268.000 248.864 C 268.000 248.570,269.802 247.506,270.431 247.429 C 270.559 247.413,271.837 246.641,273.272 245.713 C 274.707 244.785,276.365 243.841,276.957 243.616 C 277.549 243.391,279.106 242.479,280.417 241.589 C 281.728 240.698,282.800 240.065,282.800 240.181 C 282.800 240.297,283.152 240.091,283.583 239.722 C 284.013 239.354,284.619 239.015,284.929 238.969 C 285.240 238.924,286.438 238.237,287.592 237.443 C 288.746 236.649,289.920 236.000,290.202 236.000 C 290.484 236.000,290.822 235.719,290.954 235.375 C 291.086 235.031,291.354 234.848,291.550 234.969 C 291.746 235.090,292.361 234.832,292.916 234.395 C 293.472 233.958,294.064 233.600,294.232 233.600 C 294.400 233.600,294.821 233.355,295.169 233.056 C 295.516 232.757,296.790 231.977,298.000 231.323 C 301.276 229.553,302.113 229.051,302.713 228.500 C 303.012 228.225,303.514 228.000,303.829 228.000 C 304.143 228.000,304.400 227.809,304.400 227.576 C 304.400 227.343,304.565 227.255,304.768 227.380 C 304.970 227.505,305.383 227.381,305.685 227.104 C 306.502 226.354,307.634 225.660,309.200 224.947 C 309.970 224.597,310.690 224.192,310.800 224.047 C 310.910 223.902,311.450 223.560,312.000 223.288 C 312.550 223.015,313.540 222.433,314.200 221.995 C 314.860 221.557,316.030 220.908,316.800 220.554 C 317.570 220.200,318.290 219.795,318.400 219.655 C 318.705 219.267,320.910 217.979,321.700 217.729 C 322.085 217.607,322.400 217.367,322.400 217.197 C 322.400 217.026,322.850 216.774,323.400 216.636 C 323.950 216.498,324.400 216.198,324.400 215.969 C 324.400 215.740,324.569 215.657,324.776 215.785 C 324.983 215.913,325.478 215.691,325.876 215.291 C 326.274 214.891,328.130 213.782,330.000 212.826 C 331.870 211.869,333.490 210.953,333.600 210.790 C 333.710 210.626,334.880 209.904,336.200 209.184 C 337.520 208.464,338.960 207.675,339.400 207.431 C 340.813 206.646,342.593 205.429,342.845 205.075 C 342.979 204.886,343.249 204.725,343.445 204.718 C 344.248 204.687,345.600 203.992,345.600 203.610 C 345.600 203.384,345.735 203.245,345.900 203.299 C 346.065 203.354,346.920 202.960,347.800 202.424 C 348.680 201.888,349.535 201.483,349.700 201.525 C 349.865 201.566,350.000 201.434,350.000 201.231 C 350.000 201.028,350.629 200.655,351.397 200.401 C 352.165 200.147,352.970 199.638,353.185 199.270 C 353.400 198.901,353.581 198.735,353.588 198.900 C 353.595 199.065,353.939 198.885,354.353 198.500 C 354.766 198.115,355.531 197.483,356.053 197.097 C 357.481 196.036,359.526 194.331,360.847 193.100 C 361.496 192.495,362.107 192.000,362.205 192.000 C 363.019 192.000,377.518 177.366,377.220 176.845 C 377.172 176.759,377.288 176.579,377.479 176.445 C 377.671 176.310,378.541 175.300,379.414 174.200 C 380.286 173.100,381.135 172.140,381.300 172.067 C 381.465 171.993,381.600 171.712,381.600 171.442 C 381.600 171.172,381.915 170.595,382.300 170.160 C 383.487 168.820,384.800 166.854,384.800 166.416 C 384.800 166.187,385.010 166.000,385.267 166.000 C 385.523 166.000,385.629 165.895,385.501 165.767 C 385.297 165.564,385.874 164.549,387.707 161.884 C 387.978 161.490,388.223 160.995,388.250 160.784 C 388.278 160.573,388.322 160.233,388.350 160.029 C 388.378 159.824,388.657 159.401,388.970 159.087 C 389.449 158.608,390.575 156.325,390.841 155.293 C 390.882 155.132,391.334 154.338,391.845 153.529 C 392.356 152.719,392.853 151.620,392.950 151.085 C 393.047 150.551,393.503 149.334,393.963 148.382 C 394.423 147.429,394.800 146.434,394.800 146.171 C 394.800 145.907,395.069 145.176,395.398 144.546 C 395.726 143.916,395.996 143.076,395.998 142.680 C 395.999 142.284,396.246 141.474,396.546 140.880 C 397.060 139.864,397.766 137.175,398.167 134.707 C 398.265 134.105,398.455 133.435,398.589 133.217 C 398.724 133.000,398.917 132.142,399.019 131.311 C 399.121 130.480,399.398 128.900,399.635 127.800 C 400.275 124.824,399.929 86.673,399.245 84.800 C 398.963 84.030,398.667 82.949,398.586 82.398 C 398.259 80.173,396.748 74.220,396.406 73.808 C 396.205 73.565,395.841 72.478,395.598 71.390 C 395.354 70.303,394.776 68.600,394.313 67.606 C 393.850 66.613,393.452 65.710,393.430 65.600 C 393.407 65.490,393.245 65.175,393.070 64.900 C 392.896 64.625,392.847 64.400,392.963 64.400 C 393.078 64.400,392.644 63.435,391.997 62.257 C 391.350 61.078,390.936 59.998,391.077 59.857 C 391.218 59.715,391.113 59.600,390.843 59.600 C 390.573 59.600,390.455 59.435,390.580 59.232 C 390.705 59.030,390.568 58.625,390.275 58.332 C 389.982 58.040,389.730 57.710,389.715 57.600 C 389.619 56.917,387.780 53.600,387.497 53.600 C 387.308 53.600,387.264 53.420,387.400 53.200 C 387.536 52.980,387.478 52.800,387.272 52.800 C 387.066 52.800,386.657 52.215,386.364 51.500 C 386.070 50.785,385.417 49.750,384.911 49.200 C 384.405 48.650,383.881 47.854,383.747 47.431 C 383.612 47.008,383.342 46.468,383.146 46.231 C 382.752 45.753,380.802 43.225,379.465 41.456 C 378.989 40.827,378.111 39.792,377.513 39.156 C 376.916 38.520,376.510 38.000,376.611 38.000 C 377.180 38.000,367.533 28.199,364.800 26.000 C 363.842 25.230,362.731 24.285,362.330 23.900 C 361.928 23.515,361.439 23.200,361.243 23.200 C 361.046 23.200,360.782 22.930,360.655 22.600 C 360.529 22.270,360.189 22.000,359.901 22.000 C 359.613 22.000,359.117 21.640,358.800 21.200 C 358.483 20.760,358.070 20.400,357.883 20.400 C 357.696 20.400,357.267 20.124,356.929 19.786 C 356.000 18.857,351.908 16.147,351.000 15.859 C 350.560 15.719,349.682 15.158,349.048 14.611 C 348.414 14.064,347.760 13.701,347.593 13.804 C 347.427 13.907,347.068 13.723,346.796 13.396 C 346.524 13.068,346.054 12.800,345.751 12.800 C 345.448 12.800,345.200 12.634,345.200 12.431 C 345.200 12.228,344.525 11.843,343.700 11.575 C 342.875 11.308,341.722 10.754,341.138 10.344 C 340.554 9.935,339.800 9.600,339.462 9.600 C 339.124 9.600,338.734 9.417,338.596 9.193 C 338.458 8.970,338.204 8.874,338.031 8.981 C 337.859 9.087,337.376 8.916,336.959 8.600 C 336.542 8.284,335.885 8.020,335.500 8.013 C 335.115 8.006,334.800 7.820,334.800 7.600 C 334.800 7.380,334.380 7.200,333.867 7.200 C 333.353 7.200,332.798 7.065,332.633 6.900 C 332.468 6.735,332.168 6.578,331.967 6.550 C 331.765 6.523,331.555 6.464,331.500 6.419 C 331.445 6.375,331.130 6.271,330.800 6.189 C 330.470 6.106,328.760 5.552,327.000 4.957 C 324.094 3.976,323.483 3.771,322.200 3.347 C 320.890 2.914,314.432 1.613,313.567 1.607 C 312.998 1.603,312.400 1.467,312.238 1.304 C 312.075 1.142,311.460 0.981,310.871 0.948 C 310.282 0.915,309.260 0.747,308.600 0.576 C 306.538 0.040,274.169 -0.001,270.795 0.529 " stroke="none" fill="#84dc9c" fill-rule="evenodd"></path><path id="path1" d="M109.800 0.614 C 105.278 1.350,98.852 2.629,97.200 3.121 C 96.430 3.350,94.454 3.924,92.809 4.396 C 91.164 4.867,89.634 5.390,89.409 5.557 C 89.184 5.723,88.190 6.091,87.200 6.374 C 81.831 7.906,65.600 16.089,65.600 17.263 C 65.600 17.448,65.398 17.600,65.151 17.600 C 61.903 17.600,36.800 41.663,36.800 44.777 C 36.800 45.009,36.659 45.200,36.486 45.200 C 36.314 45.200,35.832 45.785,35.416 46.500 C 35.001 47.215,34.545 47.890,34.403 48.000 C 34.191 48.165,32.849 50.382,30.771 54.000 C 29.348 56.477,25.167 65.417,24.597 67.200 C 24.210 68.410,23.750 69.584,23.574 69.809 C 22.552 71.112,19.194 85.278,18.312 92.000 C 17.311 99.633,17.723 121.425,18.993 128.000 C 20.190 134.203,22.913 144.545,23.572 145.391 C 23.747 145.616,24.019 146.340,24.176 147.000 C 24.334 147.660,24.989 149.338,25.631 150.728 C 26.274 152.118,26.800 153.380,26.800 153.531 C 26.800 153.828,29.467 159.087,31.600 163.000 C 32.320 164.320,33.245 165.772,33.655 166.226 C 34.065 166.680,34.400 167.265,34.400 167.526 C 34.400 167.787,34.580 168.000,34.800 168.000 C 35.020 168.000,35.204 168.225,35.208 168.500 C 35.216 169.024,38.488 173.581,41.309 177.000 C 46.770 183.618,65.342 200.400,67.203 200.400 C 67.422 200.400,67.600 200.546,67.600 200.724 C 67.600 200.902,68.725 201.828,70.100 202.781 C 77.461 207.888,78.814 208.800,79.024 208.800 C 79.150 208.800,79.867 209.268,80.618 209.841 C 82.016 210.907,86.355 213.600,86.675 213.600 C 86.773 213.600,87.426 214.024,88.127 214.542 C 88.827 215.061,90.210 215.916,91.200 216.442 C 92.190 216.969,93.090 217.505,93.200 217.633 C 93.586 218.084,111.059 227.490,116.600 230.231 C 119.680 231.754,122.290 233.101,122.400 233.224 C 122.602 233.451,132.848 239.089,135.800 240.599 C 136.680 241.048,138.290 241.998,139.378 242.708 C 140.466 243.419,141.591 244.000,141.878 244.000 C 142.165 244.000,142.400 244.137,142.400 244.305 C 142.400 244.608,142.784 244.854,145.031 245.992 C 145.674 246.317,146.290 246.693,146.400 246.826 C 146.510 246.960,147.500 247.585,148.600 248.215 C 149.700 248.846,150.690 249.477,150.800 249.619 C 150.910 249.761,151.475 250.129,152.055 250.438 C 153.081 250.984,161.199 256.394,161.600 256.798 C 161.710 256.909,163.690 258.434,166.000 260.186 C 168.310 261.938,170.400 263.558,170.643 263.786 C 175.189 268.030,177.664 270.637,180.600 274.276 C 180.820 274.549,181.189 275.003,181.420 275.286 C 181.651 275.569,181.978 276.160,182.147 276.600 C 182.426 277.326,182.489 277.338,182.832 276.727 C 183.374 275.761,182.605 274.004,174.823 258.447 C 171.070 250.943,168.000 244.552,168.000 244.244 C 168.000 243.915,171.055 242.167,175.374 240.024 C 186.765 234.371,203.604 225.139,204.053 224.302 C 204.611 223.259,201.518 220.447,193.383 214.600 C 192.771 214.160,191.645 213.305,190.880 212.700 C 190.116 212.095,189.348 211.600,189.174 211.600 C 189.000 211.600,188.619 211.365,188.329 211.078 C 187.888 210.643,185.000 208.674,182.347 207.000 C 181.998 206.780,180.473 205.788,178.957 204.796 C 177.440 203.804,175.840 202.776,175.400 202.512 C 174.960 202.248,172.260 200.609,169.400 198.870 C 166.540 197.132,162.617 194.830,160.683 193.755 C 158.748 192.680,156.408 191.371,155.483 190.846 C 153.684 189.827,149.087 187.394,141.499 183.446 C 138.914 182.101,133.110 178.930,128.601 176.400 C 124.093 173.870,119.908 171.524,119.302 171.187 C 118.696 170.850,117.390 170.052,116.400 169.413 C 111.214 166.071,110.432 165.600,110.066 165.600 C 109.846 165.600,109.607 165.461,109.533 165.290 C 109.396 164.972,103.370 160.800,103.048 160.800 C 102.949 160.800,102.448 160.440,101.934 160.000 C 101.420 159.560,99.650 158.217,98.000 157.015 C 93.570 153.787,92.878 153.230,90.034 150.600 C 85.691 146.583,82.000 142.858,82.000 142.491 C 82.000 142.300,81.595 141.780,81.100 141.334 C 80.605 140.889,79.972 140.181,79.693 139.762 C 79.414 139.343,78.244 137.650,77.092 136.000 C 67.681 122.517,64.244 102.088,69.386 90.200 C 70.066 88.630,70.805 86.294,70.764 85.845 C 70.746 85.649,70.904 85.379,71.114 85.245 C 71.325 85.110,72.083 83.830,72.800 82.400 C 73.517 80.970,74.215 79.710,74.352 79.600 C 74.857 79.193,76.400 76.820,76.400 76.450 C 76.400 76.239,76.542 76.007,76.715 75.933 C 76.888 75.860,77.653 75.010,78.415 74.044 C 81.032 70.726,87.331 64.670,90.109 62.800 C 90.926 62.250,91.596 61.665,91.597 61.500 C 91.599 61.335,91.762 61.200,91.959 61.200 C 92.157 61.200,93.488 60.490,94.917 59.621 C 102.119 55.246,110.327 52.273,117.600 51.407 C 118.810 51.262,120.970 50.981,122.400 50.780 C 127.088 50.123,135.113 50.731,144.000 52.416 C 148.283 53.228,157.081 56.073,161.600 58.107 C 165.564 59.891,169.328 61.626,170.036 61.995 C 170.926 62.459,171.178 62.206,173.378 58.643 C 176.655 53.337,191.774 39.888,205.054 30.466 C 208.626 27.932,210.624 25.600,209.224 25.600 C 209.078 25.600,207.851 24.880,206.497 24.000 C 205.142 23.120,203.906 22.400,203.749 22.400 C 203.592 22.400,203.117 22.085,202.693 21.700 C 200.729 19.914,179.958 9.200,178.460 9.200 C 178.193 9.200,177.117 8.766,176.070 8.235 C 175.023 7.705,173.094 6.977,171.783 6.618 C 170.472 6.259,169.107 5.805,168.748 5.609 C 167.553 4.957,158.241 2.470,155.200 1.991 C 153.550 1.731,151.930 1.419,151.600 1.299 C 148.824 0.284,143.945 0.017,128.800 0.054 C 117.889 0.081,112.010 0.254,109.800 0.614 M192.649 76.684 C 192.526 76.807,193.095 77.427,193.913 78.061 C 194.731 78.695,196.553 80.246,197.963 81.507 C 199.373 82.768,201.078 84.209,201.752 84.708 C 202.426 85.207,203.126 85.882,203.308 86.208 C 203.491 86.534,203.820 86.800,204.040 86.800 C 204.260 86.800,203.960 86.170,203.373 85.400 C 202.786 84.630,202.456 84.000,202.641 84.000 C 203.290 84.000,197.781 78.755,196.084 77.757 C 194.287 76.700,193.027 76.306,192.649 76.684 M211.533 89.204 C 210.841 89.866,210.360 90.493,210.464 90.598 C 210.569 90.702,211.263 90.161,212.006 89.394 C 213.659 87.688,213.280 87.535,211.533 89.204 M189.200 290.613 C 189.200 290.730,189.481 291.495,189.825 292.313 C 191.212 295.616,193.018 308.054,192.691 312.049 C 192.338 316.346,191.224 323.595,190.569 325.848 C 190.227 327.023,189.944 328.123,189.940 328.292 C 189.935 328.462,189.791 328.780,189.618 329.000 C 189.445 329.220,189.072 330.120,188.789 331.000 C 186.530 338.017,180.821 346.593,173.534 353.915 C 169.364 358.106,168.485 358.874,164.178 362.092 C 161.293 364.247,160.736 364.607,157.600 366.351 C 156.610 366.902,155.710 367.453,155.600 367.576 C 155.490 367.699,154.500 368.233,153.400 368.761 C 152.300 369.290,150.950 369.938,150.400 370.202 C 148.907 370.919,139.970 373.935,138.670 374.161 C 138.048 374.270,136.956 374.551,136.243 374.786 C 132.339 376.074,110.743 376.881,106.600 375.894 C 106.160 375.789,104.900 375.573,103.800 375.414 C 99.510 374.793,88.947 371.764,84.900 369.994 C 84.405 369.777,83.595 369.436,83.100 369.235 C 79.676 367.845,72.602 364.078,67.024 360.673 C 66.173 360.154,58.908 354.955,57.010 353.508 C 53.314 350.688,46.974 344.927,41.846 339.727 C 38.630 336.467,35.507 333.305,34.906 332.700 C 33.094 330.878,33.052 330.902,28.008 336.621 C 27.242 337.490,25.622 339.297,24.408 340.638 C 23.193 341.978,21.300 344.131,20.200 345.421 C 19.100 346.712,17.860 348.115,17.444 348.539 C 17.029 348.964,15.435 350.771,13.903 352.556 C 9.527 357.652,6.677 360.870,5.700 361.818 C 5.205 362.299,4.800 362.788,4.800 362.906 C 4.800 363.024,4.215 363.727,3.500 364.468 C -1.301 369.446,-1.332 370.789,3.245 375.800 C 3.848 376.460,5.839 378.648,7.670 380.662 C 9.502 382.677,12.255 385.467,13.788 386.862 C 15.322 388.258,17.572 390.341,18.788 391.492 C 20.005 392.642,21.225 393.587,21.500 393.592 C 21.775 393.596,22.000 393.771,22.000 393.981 C 22.000 394.190,22.855 394.948,23.900 395.664 C 25.895 397.032,26.002 397.112,27.600 398.454 C 28.150 398.916,30.406 400.488,32.614 401.947 C 38.301 405.706,38.130 405.600,38.900 405.858 C 39.285 405.988,39.600 406.230,39.600 406.398 C 39.600 406.566,40.185 406.934,40.900 407.217 C 41.615 407.500,42.470 407.956,42.800 408.230 C 43.976 409.208,59.428 416.800,60.241 416.800 C 60.372 416.800,61.136 417.088,61.940 417.441 C 63.689 418.208,64.066 418.358,68.280 419.956 C 70.084 420.640,71.753 421.200,71.990 421.200 C 72.226 421.200,73.450 421.567,74.710 422.016 C 75.969 422.465,78.440 423.189,80.200 423.624 C 81.960 424.059,83.760 424.508,84.200 424.622 C 85.139 424.865,92.945 426.374,94.400 426.594 C 94.950 426.677,95.400 426.771,95.400 426.803 C 95.400 428.589,138.612 428.428,146.200 426.614 C 147.520 426.298,150.129 425.747,151.997 425.388 C 153.866 425.030,155.576 424.594,155.797 424.420 C 156.019 424.247,157.190 423.888,158.400 423.622 C 160.524 423.156,162.120 422.675,163.800 421.995 C 164.240 421.817,165.590 421.371,166.800 421.004 C 168.010 420.637,169.399 420.081,169.886 419.768 C 170.373 419.456,170.972 419.200,171.217 419.200 C 171.686 419.200,178.856 415.978,179.200 415.612 C 179.310 415.495,180.623 414.791,182.118 414.047 C 185.311 412.458,192.941 407.690,193.133 407.164 C 193.207 406.964,193.522 406.800,193.833 406.800 C 194.145 406.800,194.400 406.659,194.400 406.486 C 194.400 406.314,194.976 405.832,195.680 405.416 C 197.021 404.624,203.506 399.298,206.128 396.835 C 214.525 388.950,222.641 379.242,227.000 371.870 C 227.440 371.126,228.652 369.096,229.693 367.359 C 231.677 364.048,231.970 363.028,231.040 362.671 C 230.732 362.552,227.700 358.618,224.302 353.928 L 218.125 345.400 204.628 318.400 C 197.204 303.550,190.944 291.175,190.716 290.900 C 190.308 290.408,189.200 290.198,189.200 290.613 M244.093 298.800 C 244.093 299.570,244.175 299.885,244.276 299.500 C 244.376 299.115,244.376 298.485,244.276 298.100 C 244.175 297.715,244.093 298.030,244.093 298.800 M244.302 315.800 C 244.197 316.350,244.266 316.800,244.455 316.800 C 244.645 316.800,244.800 316.350,244.800 315.800 C 244.800 315.250,244.731 314.800,244.647 314.800 C 244.562 314.800,244.407 315.250,244.302 315.800 M244.093 318.400 C 244.093 319.170,244.175 319.485,244.276 319.100 C 244.376 318.715,244.376 318.085,244.276 317.700 C 244.175 317.315,244.093 317.630,244.093 318.400 " stroke="none" fill="#84bcdc" fill-rule="evenodd"></path></g></svg>